<svg id="a" width="200" height="200" xmlns="http://www.w3.org/2000/svg" viewBox="0 0 24 24"><g><path d="M.26,3.18l1.09,7.52c.13,.88,1.2,1.24,1.83,.63l6.4-6.19c.64-.62,.31-1.7-.57-1.85L1.53,1.95c-.73-.13-1.37,.49-1.27,1.23Z" fill="#ff8bf5"/><g><rect x="5.38" y="7.13" width="13.23" height="13.23" rx="2.3" ry="2.3" transform="translate(-6.21 12.51) rotate(-45)" fill="#6e85f8"/><path d="M.26,3.18l1.09,7.52c.13,.88,1.2,1.24,1.83,.63l6.4-6.19c.64-.62,.31-1.7-.57-1.85L1.53,1.95c-.73-.13-1.37,.49-1.27,1.23Z" fill="#ff8bf5"/></g><path d="M23.74,3.18l-1.09,7.52c-.13,.88-1.2,1.24-1.83,.63l-6.4-6.19c-.64-.62-.31-1.7,.57-1.85l7.49-1.33c.73-.13,1.37,.49,1.27,1.23Z" fill="#6e85f8"/></g><path d="M12,11.6c.21-.11,.91-.58,1.93-.81,2.36-.54,3.27,2.06,1.87,4.02-1.24,1.43-2.53,2.08-3.81,2.93-1.27-.84-2.56-1.5-3.81-2.93-1.39-1.96-.48-4.56,1.87-4.02,1.02,.23,1.72,.7,1.93,.81" fill="#ff8bf5"/></svg>