<?xml version="1.0" encoding="UTF-8"?><svg id="ICONS" xmlns="http://www.w3.org/2000/svg" viewBox="0 0 24 24"><path d="M14.96,22.63c-.34,0-.68-.13-.94-.39l-5.19-5.19c-.52-.52-.52-1.37,0-1.89s1.37-.52,1.89,0l4.25,4.25,1.41-1.41c.52-.52,1.37-.52,1.89,0s.52,1.37,0,1.89l-2.35,2.35c-.26,.26-.6,.39-.94,.39Zm5.37-5.37c-.34,0-.68-.13-.94-.39-.52-.52-.52-1.37,0-1.89l.03-.03-2.08-2.08c-.52-.52-.52-1.37,0-1.89s1.37-.52,1.89,0l3.02,3.02c.52,.52,.52,1.37,0,1.89l-.97,.97c-.26,.26-.6,.39-.94,.39ZM5.23,12.91c-.34,0-.68-.13-.94-.39l-2.53-2.53c-.52-.52-.52-1.37,0-1.89l.49-.49c.52-.52,1.37-.52,1.89,0,.35,.35,.47,.86,.34,1.31l1.71,1.71c.52,.52,.52,1.37,0,1.89-.26,.26-.6,.39-.94,.39Zm8.52-4.17c-.34,0-.68-.13-.94-.39l-3.77-3.77-1.89,1.89c-.52,.52-1.37,.52-1.89,0s-.52-1.37,0-1.89l2.84-2.84c.52-.52,1.37-.52,1.89,0l4.71,4.71c.52,.52,.52,1.37,0,1.89-.26,.26-.6,.39-.94,.39Z" style="fill:#6ee4f8;"/><path d="M9.04,22.63c-.34,0-.68-.13-.94-.39l-2.35-2.35c-.52-.52-.52-1.37,0-1.89s1.37-.52,1.89,0l1.41,1.41,4.25-4.25c.52-.52,1.37-.52,1.89,0s.52,1.37,0,1.89l-5.19,5.19c-.26,.26-.6,.39-.94,.39Zm-5.37-5.37c-.34,0-.68-.13-.94-.39l-.97-.97c-.52-.52-.52-1.37,0-1.89l3.02-3.02c.52-.52,1.37-.52,1.89,0s.52,1.37,0,1.89l-2.08,2.08,.03,.03c.52,.52,.52,1.37,0,1.89-.26,.26-.6,.39-.94,.39Zm15.09-4.35c-.34,0-.68-.13-.94-.39-.52-.52-.52-1.37,0-1.89l1.71-1.71c-.13-.45-.02-.96,.34-1.31,.52-.52,1.37-.52,1.89,0l.49,.49c.52,.52,.52,1.37,0,1.89l-2.53,2.53c-.26,.26-.6,.39-.94,.39Zm-8.52-4.17c-.34,0-.68-.13-.94-.39-.52-.52-.52-1.37,0-1.89L14.01,1.76c.52-.52,1.37-.52,1.89,0l2.84,2.84c.52,.52,.52,1.37,0,1.89s-1.37,.52-1.89,0l-1.89-1.89-3.77,3.77c-.26,.26-.6,.39-.94,.39Z" style="fill:#6ee4f8;"/></svg>