<?xml version="1.0" encoding="UTF-8"?><svg id="ICONS" xmlns="http://www.w3.org/2000/svg" viewBox="0 0 24 24"><circle cx="12.02" cy="12" r="7.8" style="fill:none; stroke:#6ee4f8; stroke-miterlimit:10; stroke-width:2.5px;"/><path d="M5.4,12.7c-.63,0-1.14,.51-1.14,1.14s.51,1.14,1.14,1.14,1.14-.51,1.14-1.14-.51-1.14-1.14-1.14h0Z" style="fill:#ff8bf5;"/><path d="M18.88,12.4c-.63,0-1.14,.51-1.14,1.14s.51,1.14,1.14,1.14,1.14-.51,1.14-1.14-.51-1.14-1.14-1.14h0Z" style="fill:#ff8bf5;"/><g><rect x="6.71" y="10.23" width="4.02" height="1.42" rx=".71" ry=".71" transform="translate(21.74 16.06) rotate(150)" style="fill:#6ee4f8;"/><rect x="6.71" y="8.93" width="4.02" height="1.42" rx=".71" ry=".71" transform="translate(11.44 22.36) rotate(-150)" style="fill:#6ee4f8;"/></g><path d="M10.34,12.12c.79,.82,2.38,.79,3.19-.01" style="fill:none; stroke:#45e8ff; stroke-linecap:round; stroke-miterlimit:11.34; stroke-width:1.25px;"/><g><rect x="13.27" y="10.23" width="4.02" height="1.42" rx=".71" ry=".71" transform="translate(7.52 -6.18) rotate(30)" style="fill:#6ee4f8;"/><rect x="13.27" y="8.93" width="4.02" height="1.42" rx=".71" ry=".71" transform="translate(-2.78 8.93) rotate(-30)" style="fill:#6ee4f8;"/></g></svg>