<?xml version="1.0" encoding="UTF-8"?><svg id="ICONS" xmlns="http://www.w3.org/2000/svg" viewBox="0 0 24 24"><path d="M11.07,10.58l-5.65-3.26c-1.09-.63-2.46,.16-2.46,1.42v6.52c0,1.26,1.37,2.05,2.46,1.42l5.65-3.26c1.09-.63,1.09-2.21,0-2.84Z" style="fill:#5c5fff;"/><path d="M12.94,10.58l5.65-3.26c1.09-.63,2.46,.16,2.46,1.42v6.52c0,1.26-1.37,2.05-2.46,1.42l-5.65-3.26c-1.09-.63-1.09-2.21,0-2.84Z" style="fill:#5c5fff;"/><path d="M12,10.14c.18-.1,.79-.5,1.67-.7,2.04-.47,2.83,1.78,1.62,3.48-1.08,1.23-2.19,1.8-3.29,2.53-1.1-.73-2.22-1.3-3.29-2.53-1.2-1.7-.42-3.95,1.62-3.48,.89,.2,1.49,.6,1.67,.7" style="fill:#5c98ff;"/></svg>