<?xml version="1.0" encoding="UTF-8"?><svg id="ICONS" xmlns="http://www.w3.org/2000/svg" viewBox="0 0 24 24"><rect x="3.06" y="4.79" width="17.92" height="2.02" rx=".92" ry=".92" style="fill:#6e6cf8;"/><rect x="3.06" y="8.75" width="17.92" height="2.02" rx=".92" ry=".92" style="fill:#6e6cf8;"/><path d="M19.28,15.09l1.28-1.28c.56-.56,.56-1.46,0-2.02h0c-.56-.56-1.46-.56-2.02,0l-1.28,1.28-1.28-1.28c-.56-.56-1.46-.56-2.02,0h0c-.56,.56-.56,1.46,0,2.02l1.28,1.28-1.28,1.28c-.56,.56-.56,1.46,0,2.02h0c.56,.56,1.46,.56,2.02,0l1.28-1.28,1.28,1.28c.56,.56,1.46,.56,2.02,0h0c.56-.56,.56-1.46,0-2.02l-1.28-1.28Z" style="fill:#6ee4f8;"/><path d="M12.79,13.6c0-.5-.38-.9-.85-.9H3.91c-.48,0-.86,.41-.86,.92v.19c0,.51,.39,.92,.86,.92H11.94c.47,0,.85-.4,.85-.9v-.22Z" style="fill:#6e6cf8;"/><path d="M12.79,17.56c0-.5-.38-.9-.85-.9H3.91c-.48,0-.86,.41-.86,.92v.19c0,.51,.39,.92,.86,.92H11.94c.47,0,.85-.4,.85-.9v-.22Z" style="fill:#6e6cf8;"/></svg>