<?xml version="1.0" encoding="UTF-8"?><svg id="ICONS" xmlns="http://www.w3.org/2000/svg" viewBox="0 0 24 24"><g><path d="M11.8,7.06c-.09,0-.12-.05-.13-.07l-2.7-4.29s-.05-.08,0-.16c.05-.08,.11-.08,.14-.08h5.39s.09,0,.14,.08c.04,.08,.01,.14,0,.16l-2.7,4.29s-.05,.07-.13,.07Z" style="fill:#6ee4f8;"/><path d="M12.07,3.95l-.27,.43-.27-.43h.54M14.5,.95h-5.39c-1.3,0-2.1,1.44-1.4,2.54l2.7,4.29c.33,.52,.86,.78,1.4,.78s1.08-.26,1.4-.78l2.7-4.29c.69-1.1-.1-2.54-1.4-2.54h0Z" style="fill:#6ee4f8;"/></g><rect x="4.53" y="9.77" width="14.95" height="4.45" rx="1.86" ry="1.86" style="fill:#6ee4f8;"/><g><path d="M9.11,21.54s-.1,0-.14-.08c-.05-.08-.01-.14,0-.16l2.69-4.28s.05-.08,.14-.08,.12,.05,.14,.08l2.69,4.28s.05,.08,0,.16c-.05,.08-.11,.08-.14,.08h-5.38Z" style="fill:#6ee4f8;"/><path d="M11.8,19.62l.27,.43h-.54l.27-.43m0-4.18c-.54,0-1.08,.26-1.41,.78l-2.69,4.28c-.7,1.11,.1,2.55,1.41,2.55h5.38c1.31,0,2.1-1.44,1.41-2.55l-2.69-4.28c-.33-.52-.87-.78-1.41-.78h0Z" style="fill:#6ee4f8;"/></g></svg>