<?xml version="1.0" encoding="UTF-8"?><svg id="ICONS" xmlns="http://www.w3.org/2000/svg" viewBox="0 0 24 24"><path d="M12.04,7.08c2.71,0,4.92,2.21,4.92,4.92s-2.21,4.92-4.92,4.92-4.92-2.21-4.92-4.92,2.21-4.92,4.92-4.92m0-2.5c-4.1,0-7.42,3.32-7.42,7.42s3.32,7.42,7.42,7.42,7.42-3.32,7.42-7.42-3.32-7.42-7.42-7.42h0Z" style="fill:#6ed2f8;"/><g><path d="M4.62,12c0-1.26,.31-2.44,.87-3.47h-1c-1.92,0-3.47,1.56-3.47,3.47s1.56,3.47,3.47,3.47h1c-.55-1.04-.87-2.22-.87-3.47Z" style="fill:#6e7af8;"/><path d="M19.51,8.53h-.91c.55,1.04,.87,2.22,.87,3.47s-.31,2.44-.87,3.47h.91c1.92,0,3.47-1.56,3.47-3.47s-1.56-3.47-3.47-3.47Z" style="fill:#6e7af8;"/></g></svg>