<?xml version="1.0" encoding="UTF-8"?><svg id="ICONS" xmlns="http://www.w3.org/2000/svg" viewBox="0 0 24 24"><path d="M12.01,7.04c2.71,0,4.92,2.21,4.92,4.92s-2.21,4.92-4.92,4.92-4.92-2.21-4.92-4.92,2.21-4.92,4.92-4.92m0-2.5c-4.1,0-7.42,3.32-7.42,7.42s3.32,7.42,7.42,7.42,7.42-3.32,7.42-7.42-3.32-7.42-7.42-7.42h0Z" style="fill:#6ed2f8;"/><g><path d="M12.01,19.38c-1.26,0-2.44-.31-3.47-.87v1c0,1.92,1.56,3.47,3.47,3.47s3.47-1.56,3.47-3.47v-1c-1.04,.55-2.22,.87-3.47,.87Z" style="fill:#6e7af8;"/><path d="M8.54,4.49v.91c1.04-.55,2.22-.87,3.47-.87s2.44,.31,3.47,.87v-.91c0-1.92-1.56-3.47-3.47-3.47s-3.47,1.56-3.47,3.47Z" style="fill:#6e7af8;"/></g></svg>