<?xml version="1.0" encoding="UTF-8"?><svg id="ICONS" xmlns="http://www.w3.org/2000/svg" viewBox="0 0 24 24"><path d="M11.02,20.78C6.17,17.89,3.23,11.37,2.9,5.14c-.04-.76,.53-1.43,1.33-1.6,3.59-.78,12-.79,15.55-.01,.79,.17,1.35,.84,1.32,1.6-.29,6.77-3.23,12.81-8.13,15.67-.6,.35-1.35,.35-1.95,0Z" style="fill:#5c98ff; stroke:#dc98ff; stroke-linecap:round; stroke-linejoin:round; stroke-width:2px;"/><path d="M12,8.55c.18-.1,.78-.5,1.66-.7,2.03-.46,2.81,1.77,1.61,3.46-1.07,1.23-2.18,1.79-3.27,2.52-1.1-.73-2.2-1.29-3.27-2.52-1.2-1.69-.42-3.92,1.61-3.46,.88,.2,1.48,.6,1.66,.7" style="fill:#dc98ff;"/></svg>