<?xml version="1.0" encoding="UTF-8"?><svg id="ICONS" xmlns="http://www.w3.org/2000/svg" viewBox="0 0 24 24"><path d="M11.99,4.39c3.15,0,5.72,3.43,5.72,7.65s-2.57,7.65-5.72,7.65-5.72-3.43-5.72-7.65,2.57-7.65,5.72-7.65m0-2c-4.26,0-7.72,4.32-7.72,9.65s3.46,9.65,7.72,9.65,7.72-4.32,7.72-9.65S16.26,2.39,11.99,2.39h0Z" style="fill:#00a22e;"/><path d="M11.99,4.39c1.6,0,3.12,.92,4.2,2.48-1.12,.53-2.52,.83-3.98,.83-1.6,0-3.13-.36-4.3-.99,1.07-1.46,2.55-2.32,4.08-2.32m0-2c-2.87,0-5.37,1.96-6.7,4.86,1.47,1.48,4.02,2.45,6.92,2.45,2.71,0,5.1-.85,6.61-2.17-1.29-3.06-3.86-5.15-6.83-5.15h0Z" style="fill:#00a22e;"/><g><path d="M4.27,12.04c0-.54,.04-1.06,.11-1.57h-.18c-1.11,0-2.02,.9-2.02,2.02s.9,2.02,2.02,2.02h.33c-.17-.79-.26-1.61-.26-2.46Z" style="fill:#00a22e; fill-rule:evenodd;"/><path d="M19.87,10.47h-.26c.07,.51,.11,1.04,.11,1.57,0,.85-.1,1.68-.26,2.46h.42c1.11,0,2.02-.9,2.02-2.02s-.9-2.02-2.02-2.02Z" style="fill:#00a22e; fill-rule:evenodd;"/></g><g><path d="M5.3,7.24c.62-1.34,1.48-2.47,2.51-3.3l-.08-.09c-.71-.86-1.98-.98-2.84-.28s-.98,1.98-.28,2.84l.68,.83Z" style="fill:#00a22e; fill-rule:evenodd;"/><path d="M19.85,18.57l-1.26-1.53c-.64,1.32-1.52,2.42-2.57,3.23l.72,.87c.71,.86,1.98,.98,2.84,.28,.86-.71,.98-1.98,.28-2.84Z" style="fill:#00a22e; fill-rule:evenodd;"/></g><g><path d="M5.57,17.4l-.96,1.16c-.71,.86-.58,2.13,.28,2.84,.86,.71,2.13,.58,2.84-.28l.53-.64c-1.08-.75-2-1.81-2.69-3.08Z" style="fill:#00a22e; fill-rule:evenodd;"/><path d="M19.58,3.57c-.86-.71-2.13-.58-2.84,.28l-.28,.34c1,.89,1.83,2.07,2.39,3.44l1-1.22c.71-.86,.58-2.13-.28-2.84Z" style="fill:#00a22e; fill-rule:evenodd;"/></g></svg>