<?xml version="1.0" encoding="UTF-8"?><svg id="ICONS" xmlns="http://www.w3.org/2000/svg" viewBox="0 0 24 24"><g><g><path d="M5.68,11.93c0-.44,.04-.86,.09-1.28h-.15c-.91,0-1.64,.74-1.64,1.64s.74,1.64,1.64,1.64h.27c-.14-.64-.21-1.31-.21-2Z" style="fill:#00a22e; fill-rule:evenodd;"/><path d="M18.37,10.65h-.21c.05,.42,.09,.84,.09,1.28,0,.69-.08,1.36-.21,2h.34c.91,0,1.64-.74,1.64-1.64s-.74-1.64-1.64-1.64Z" style="fill:#00a22e; fill-rule:evenodd;"/></g><g><path d="M6.52,8.02c.5-1.09,1.2-2.01,2.04-2.69l-.06-.08c-.58-.7-1.61-.8-2.31-.22s-.8,1.61-.22,2.31l.56,.68Z" style="fill:#00a22e; fill-rule:evenodd;"/><path d="M18.36,17.24l-1.03-1.25c-.52,1.07-1.24,1.97-2.09,2.63l.58,.71c.58,.7,1.61,.8,2.31,.22,.7-.58,.8-1.61,.22-2.31Z" style="fill:#00a22e; fill-rule:evenodd;"/></g><g><path d="M6.75,16.29l-.78,.95c-.58,.7-.48,1.74,.22,2.31,.7,.58,1.74,.48,2.31-.22l.43-.52c-.88-.61-1.63-1.47-2.19-2.51Z" style="fill:#00a22e; fill-rule:evenodd;"/><path d="M18.14,5.03c-.7-.58-1.74-.48-2.31,.22l-.23,.27c.82,.72,1.49,1.68,1.95,2.8l.81-.99c.58-.7,.48-1.74-.22-2.31Z" style="fill:#00a22e; fill-rule:evenodd;"/></g></g><g><path d="M11.28,6.16c.23-.05,.46-.09,.69-.09-.23,0-.46,.03-.69,.09Z" style="fill:#00a2c9;"/><path d="M9.78,6.94c-.18,.15-.35,.31-.52,.5,.16-.18,.34-.35,.52-.5Z" style="fill:#00a2c9;"/><path d="M10.56,6.42c.21-.1,.42-.18,.64-.24-.22,.06-.43,.14-.64,.24Z" style="fill:#00a2c9;"/><path d="M9.88,6.85c.19-.15,.38-.27,.58-.38-.2,.11-.4,.23-.58,.38Z" style="fill:#00a2c9;"/><path d="M11.19,4.14c-.07,.01-.14,.03-.22,.04,.07-.01,.14-.03,.22-.04Z" style="fill:#00a2c9;"/><path d="M11.97,6.08c.24,0,.48,.04,.72,.09-.23-.06-.47-.09-.72-.09Z" style="fill:#00a2c9;"/><path d="M14.59,4.8s-.08-.05-.11-.07c.04,.02,.08,.05,.11,.07Z" style="fill:#00a2c9;"/><path d="M10.41,4.33c-.06,.02-.13,.04-.19,.06,.06-.02,.13-.04,.19-.06Z" style="fill:#00a2c9;"/><path d="M16.6,6.63s-.05-.08-.08-.11c.03,.04,.05,.08,.08,.11Z" style="fill:#00a2c9;"/><path d="M14.7,7.47c-.14-.16-.28-.3-.43-.43,.15,.13,.29,.28,.43,.43Z" style="fill:#00a2c9;"/><path d="M17.1,7.4s-.04-.06-.06-.09c.02,.03,.04,.06,.06,.09Z" style="fill:#00a2c9;"/><path d="M12.76,4.15c.07,.01,.14,.03,.22,.04-.07-.01-.14-.03-.22-.04Z" style="fill:#00a2c9;"/><path d="M8.15,5.7s-.05,.04-.07,.06c.02-.02,.04-.04,.07-.06Z" style="fill:#00a2c9;"/><path d="M8.7,5.23s.08-.06,.12-.09c-.04,.03-.08,.06-.12,.09Z" style="fill:#00a2c9;"/><polygon points="6.52 8.03 6.52 8.03 6.52 8.03 6.52 8.03" style="fill:#00a2c9;"/><path d="M6.95,7.22s.03-.04,.04-.06c-.01,.02-.03,.04-.04,.06Z" style="fill:#00a2c9;"/><path d="M14.07,6.87c-.17-.13-.34-.25-.52-.35,.18,.1,.35,.22,.52,.35Z" style="fill:#00a2c9;"/><g><path d="M11.97,18.78c-2.91,0-5.28-3.07-5.28-6.85,0-.77,.1-1.52,.28-2.21l.8,.38c1.29,.61,2.8,.94,4.37,.94,1.42,0,2.82-.27,4.03-.78l.84-.36c.16,.64,.24,1.33,.24,2.04,0,3.78-2.37,6.85-5.28,6.85Zm4.75-9.8c-.29-.76-.68-1.45-1.16-2.03l-.3-.37c.71,.74,1.28,1.71,1.62,2.83l-.16-.43Zm-9.59,.22c.36-1.07,.93-2,1.63-2.7l-.28,.32c-.5,.57-.9,1.25-1.21,2.01l-.15,.37Zm5.02-2.16c-1.16,0-2.01-.26-2.51-.48l-.64-.28c.85-.75,1.87-1.19,2.97-1.19,1.16,0,2.24,.49,3.11,1.32l-.65,.24c-.68,.26-1.47,.39-2.29,.39Z" style="fill:#00a22e; fill-rule:evenodd;"/><path d="M7.72,11.17c1.33,.56,2.85,.86,4.42,.86,1.43,0,2.83-.25,4.08-.73,.02,.21,.03,.41,.03,.62,0,3.17-1.96,5.85-4.28,5.85s-4.28-2.68-4.28-5.85c0-.26,.01-.51,.04-.76m4.24-7.09c-3.47,0-6.28,3.51-6.28,7.85s2.81,7.85,6.28,7.85,6.28-3.51,6.28-7.85-2.81-7.85-6.28-7.85h0Zm.18,5.95c-1.47,0-2.84-.31-3.94-.84,.26-.66,.62-1.24,1.03-1.73,.75,.33,1.73,.56,2.91,.56,.95,0,1.86-.16,2.64-.46,.41,.49,.75,1.09,.99,1.75-1.05,.44-2.29,.71-3.64,.71h0Z" style="fill:#00a22e;"/></g><path d="M13.58,4.35c.06,.02,.11,.03,.17,.05-.05-.02-.11-.04-.17-.05Z" style="fill:#00a2c9;"/><path d="M13.39,6.43c-.2-.1-.41-.19-.62-.24,.21,.06,.42,.14,.62,.24Z" style="fill:#00a2c9;"/><path d="M15.32,5.3s-.1-.08-.15-.11c.05,.04,.1,.07,.15,.11Z" style="fill:#00a2c9;"/></g></svg>