<?xml version="1.0" encoding="UTF-8"?><svg id="ICONS" xmlns="http://www.w3.org/2000/svg" viewBox="0 0 24 24"><g><rect x="3.75" y="7.91" width="16.5" height="13.62" rx="1.75" ry="1.75" style="fill:#5c5fff;"/><rect x="3.3" y="7.5" width="17.4" height="4.95" rx=".51" ry=".51" style="fill:#ba5fff;"/></g><g><path d="M11.71,5.42L6.26,2.27c-.67-.39-1.52,.1-1.52,.88v6.28c0,.78,.84,1.26,1.52,.88l5.44-3.14c.67-.39,.67-1.36,0-1.75Z" style="fill:#5c5fff;"/><path d="M12.29,5.42l5.44-3.14c.67-.39,1.52,.1,1.52,.88v6.28c0,.78-.84,1.26-1.52,.88l-5.44-3.14c-.67-.39-.67-1.36,0-1.75Z" style="fill:#5c5fff;"/><path d="M11.99,4.8c.14-.08,.63-.4,1.34-.56,1.64-.37,2.27,1.43,1.3,2.79-.86,.99-1.76,1.45-2.64,2.03-.88-.59-1.78-1.04-2.64-2.03-.97-1.36-.34-3.17,1.3-2.79,.71,.16,1.2,.48,1.34,.56" style="fill:#5c98ff;"/></g></svg>