<?xml version="1.0" encoding="UTF-8"?><svg id="ICONS" xmlns="http://www.w3.org/2000/svg" viewBox="0 0 24 24"><g><rect x="2.88" y="7.72" width="19.98" height="8.55" rx="2.3" ry="2.3" transform="translate(-4.72 12.62) rotate(-45)" style="fill:#1ecd86;"/><rect x="1.14" y="7.72" width="19.98" height="8.55" rx="2.3" ry="2.3" transform="translate(10.51 28.36) rotate(-135)" style="fill:#1ecd86;"/><rect x="7.72" y="8.59" width="8.55" height="8.55" rx="1.65" ry="1.65" transform="translate(12.62 -4.71) rotate(45)" style="fill:#106e49;"/></g><path d="M12.01,11.77c.12-.07,.54-.35,1.16-.49,1.41-.32,1.96,1.24,1.12,2.41-.74,.86-1.52,1.25-2.28,1.75-.76-.51-1.54-.9-2.28-1.75-.83-1.18-.29-2.73,1.12-2.41,.61,.14,1.03,.42,1.16,.49" style="fill:#1ecd86;"/></svg>