<?xml version="1.0" encoding="UTF-8"?><svg id="ICONS" xmlns="http://www.w3.org/2000/svg" viewBox="0 0 24 24"><circle cx="11.96" cy="12" r="8.78" style="fill:none; stroke:#6ee4f8; stroke-miterlimit:10; stroke-width:2.5px;"/><path d="M14.58,12l1.63-1.63c.71-.71,.71-1.87,0-2.58h0c-.71-.71-1.87-.71-2.58,0l-1.63,1.63-1.63-1.63c-.71-.71-1.87-.71-2.58,0h0c-.71,.71-.71,1.87,0,2.58l1.63,1.63-1.63,1.63c-.71,.71-.71,1.87,0,2.58h0c.71,.71,1.87,.71,2.58,0l1.63-1.63,1.63,1.63c.71,.71,1.87,.71,2.58,0h0c.71-.71,.71-1.87,0-2.58l-1.63-1.63Z" style="fill:#6ee4f8;"/></svg>