<?xml version="1.0" encoding="UTF-8"?><svg id="ICONS" xmlns="http://www.w3.org/2000/svg" viewBox="0 0 24 24"><g><path d="M9.11,7.04s-.09,0-.14-.08c-.04-.08-.01-.14,0-.16l2.7-4.29s.05-.07,.13-.07,.12,.05,.13,.07l2.7,4.29s.05,.08,0,.16c-.05,.08-.11,.08-.14,.08h-5.39Z" style="fill:#6ee4f8;"/><path d="M11.8,5.11l.27,.43h-.54l.27-.43m0-4.18c-.54,0-1.08,.26-1.4,.78l-2.7,4.29c-.69,1.1,.1,2.54,1.4,2.54h5.39c1.3,0,2.1-1.44,1.4-2.54L13.21,1.71c-.33-.52-.86-.78-1.4-.78h0Z" style="fill:#6ee4f8;"/></g><rect x="4.53" y="9.73" width="14.95" height="4.45" rx="1.86" ry="1.86" style="fill:#6ee4f8;"/><g><path d="M11.8,21.48c-.09,0-.12-.05-.14-.08l-2.69-4.28s-.05-.08,0-.16,.11-.08,.14-.08h5.38s.1,0,.14,.08,.01,.14,0,.16l-2.69,4.28s-.05,.08-.14,.08Z" style="fill:#6ee4f8;"/><path d="M12.07,18.38l-.27,.43-.27-.43h.54m2.42-3h-5.38c-1.31,0-2.1,1.44-1.41,2.55l2.69,4.28c.33,.52,.87,.78,1.41,.78s1.08-.26,1.41-.78l2.69-4.28c.7-1.11-.1-2.55-1.41-2.55h0Z" style="fill:#6ee4f8;"/></g></svg>