<?xml version="1.0" encoding="UTF-8"?><svg id="ICONS" xmlns="http://www.w3.org/2000/svg" viewBox="0 0 24 24"><rect x="2.6" y="4.44" width="6.44" height="4.54" rx=".81" ry=".81" style="fill:#6e53f8;"/><rect x="1.53" y="5.36" width="20.95" height="14.67" rx="2.65" ry="2.65" style="fill:#6ee4f8;"/><circle cx="15.2" cy="12.7" r="4.48" style="fill:#73ffa3;"/><rect x="10.64" y="9.68" width="9.25" height="6.03" style="fill:#0095d0;"/><path d="M15.2,6.71c-3.3,0-5.98,2.68-5.98,5.98s2.68,5.98,5.98,5.98,5.98-2.68,5.98-5.98-2.68-5.98-5.98-5.98Zm0,10.46c-2.47,0-4.48-2-4.48-4.48s2-4.48,4.48-4.48,4.48,2,4.48,4.48-2,4.48-4.48,4.48Z" style="fill:#423cf8;"/><circle cx="15.2" cy="12.7" r="3.02" style="fill:#2eb8ff;"/></svg>