<?xml version="1.0" encoding="UTF-8"?><svg id="ICONS" xmlns="http://www.w3.org/2000/svg" viewBox="0 0 24 24"><path d="M17.31,13.99c.25-.14,1.08-.69,2.31-.97,2.82-.64,3.9,2.46,2.24,4.8-1.48,1.7-3.02,2.49-4.54,3.49-1.52-1.01-3.06-1.79-4.54-3.49-1.66-2.34-.58-5.45,2.24-4.8,1.22,.28,2.06,.83,2.31,.97" style="fill:#5c98ff;"/><g><rect x="2.06" y="4.8" width="10.3" height="7.72" rx="1.86" ry="1.86" style="fill:#6ed2f8;"/><path d="M12.01,18.48c-1.21-1.7-1.36-3.74-.42-5.15,.77-1.15,2.12-1.63,3.63-1.29,.91,.21,1.62,.54,2.08,.79,.46-.25,1.18-.58,2.08-.79,.94-.22,1.83-.11,2.55,.29v-2.09c0-1.92-1.56-3.48-3.48-3.48H5.54c-1.92,0-3.48,1.56-3.48,3.48v5.48c0,1.92,1.56,3.48,3.48,3.48h7.16c-.23-.22-.46-.46-.69-.72Z" style="fill:#6ee4f8;"/></g><g><rect x="1.47" y="4.37" width="10.91" height="8.18" rx="1.86" ry="1.86" style="fill:#6ed2f8;"/><rect x="1.47" y="6.47" width="21.06" height="13.17" rx="3.48" ry="3.48" style="fill:#6ee4f8;"/></g></svg>