<?xml version="1.0" encoding="UTF-8"?><svg id="ICONS" xmlns="http://www.w3.org/2000/svg" viewBox="0 0 24 24"><path d="M7.66,21.94c-.53,0-1.04-.25-1.36-.72L1.16,13.58c-.33-.49-.37-1.11-.11-1.63l.76-1.54c.4-.81,1.38-1.15,2.19-.75,.81,.4,1.15,1.38,.75,2.19l-.34,.69,4.61,6.85c.5,.75,.31,1.77-.44,2.27-.28,.19-.6,.28-.91,.28Zm5.31-.09c-.85,0-1.57-.66-1.63-1.53-.06-.9,.62-1.68,1.52-1.75l3.41-.23,1.64-3.35c.4-.81,1.38-1.15,2.19-.75,.81,.4,1.15,1.38,.75,2.19l-1.92,3.92s-.05,.09-.07,.13c-.22,.58-.76,1.01-1.42,1.05l-4.36,.3s-.08,0-.11,0Zm8.2-9.36c-.53,0-1.04-.25-1.36-.72l-4.44-6.6-1.07,.07c-.9,.07-1.68-.62-1.75-1.52-.06-.9,.62-1.68,1.52-1.75l2.02-.14c.58-.04,1.14,.23,1.47,.72l4.97,7.38c.5,.75,.31,1.77-.44,2.27-.28,.19-.6,.28-.91,.28ZM5.68,7.85c-.24,0-.49-.05-.72-.17-.81-.4-1.15-1.38-.75-2.19l1.03-2.1c.26-.53,.78-.87,1.36-.91l2.03-.14c.91-.06,1.68,.62,1.75,1.52,.06,.9-.62,1.68-1.52,1.75l-1.08,.07-.61,1.25c-.28,.58-.87,.92-1.47,.92Z" style="fill:#6ee4f8;"/><path d="M10.89,16.51c-.57,0-1.05-.44-1.09-1.02-.04-.6,.41-1.12,1.01-1.16l3.27-.22c.61-.03,1.12,.41,1.16,1.01,.04,.6-.41,1.12-1.01,1.16l-3.27,.22s-.05,0-.08,0Zm4.28-2.29c-.16,0-.32-.04-.48-.11-.54-.27-.77-.92-.5-1.46l.4-.82-1.23-1.82c-.34-.5-.2-1.18,.3-1.52,.5-.34,1.18-.2,1.52,.3l1.58,2.35c.22,.32,.25,.74,.07,1.09l-.68,1.38c-.19,.39-.58,.61-.98,.61Zm-6.99-.84c-.34,0-.68-.16-.89-.48l-.02-.03c-.22-.32-.24-.74-.07-1.09l1.69-3.45c.17-.35,.52-.58,.91-.61l1.58-.11c.6-.03,1.12,.41,1.16,1.01,.04,.6-.41,1.12-1.01,1.16l-.95,.07-1.35,2.76c-.07,.23-.22,.43-.43,.57-.19,.13-.41,.19-.62,.19Z" style="fill:#6ee4f8;"/></svg>