<?xml version="1.0" encoding="UTF-8"?><svg id="ICONS" xmlns="http://www.w3.org/2000/svg" viewBox="0 0 24 24"><path d="M12,22.85c-.82,0-1.65-.1-2.46-.28-3.17-.74-5.82-2.84-7.27-5.76-.43-.87-.08-1.93,.8-2.36,.87-.43,1.93-.08,2.36,.8,.98,1.97,2.77,3.39,4.91,3.89,.98,.23,2,.25,2.97,.07,.95-.17,1.87,.46,2.05,1.42,.17,.96-.46,1.87-1.42,2.05-.64,.12-1.29,.18-1.94,.18Zm6.68-2.93c-.43,0-.86-.15-1.19-.47-.71-.66-.76-1.77-.1-2.49,.86-.93,1.46-2.07,1.75-3.31,.05-.2,.09-.41,.12-.61,.14-.96,1.03-1.63,2-1.49,.96,.14,1.63,1.03,1.49,2-.04,.3-.1,.6-.17,.9-.43,1.83-1.32,3.53-2.59,4.9-.35,.38-.82,.57-1.29,.57ZM3.06,12.08c-.11,0-.22-.01-.33-.03-.96-.18-1.59-1.1-1.41-2.06,.03-.15,.06-.31,.1-.46,.39-1.67,1.18-3.25,2.29-4.55,.63-.74,1.74-.84,2.48-.2,.74,.63,.83,1.74,.2,2.48-.76,.89-1.28,1.93-1.54,3.08-.02,.1-.05,.2-.06,.3-.16,.85-.9,1.44-1.73,1.44Zm16.9-2.69c-.62,0-1.23-.33-1.55-.91-1-1.82-2.74-3.14-4.76-3.61-1.08-.25-2.21-.26-3.28-.01-.94,.22-1.89-.38-2.11-1.33s.38-1.89,1.33-2.11c1.59-.36,3.25-.36,4.85,.02,3,.7,5.57,2.65,7.05,5.35,.47,.85,.16,1.92-.7,2.39-.27,.15-.56,.22-.85,.22Z" style="fill:#6ee4f8;"/><path d="M13.04,17.62c-.66,0-1.25-.44-1.42-1.11-.2-.79,.28-1.58,1.06-1.78,1.03-.26,1.82-1.06,2.06-2.1,.18-.79,.97-1.28,1.76-1.1,.79,.18,1.28,.97,1.1,1.76-.49,2.11-2.1,3.75-4.2,4.28-.12,.03-.24,.05-.36,.05Zm-4.26-1.33c-.41,0-.81-.17-1.1-.5-.92-1.05-1.43-2.4-1.43-3.8,0-.44,.05-.88,.15-1.31,.06-.28,.15-.54,.25-.8,.3-.76,1.15-1.13,1.9-.83,.76,.3,1.13,1.15,.83,1.9-.05,.13-.09,.26-.12,.4-.05,.21-.07,.43-.07,.64,0,.68,.25,1.34,.7,1.86,.53,.61,.48,1.54-.13,2.07-.28,.24-.62,.37-.97,.37Zm6.81-5.16c-.48,0-.95-.24-1.23-.67-.4-.61-1.01-1.04-1.73-1.21-.3-.07-.62-.09-.92-.06-.81,.08-1.53-.51-1.61-1.31-.08-.81,.51-1.53,1.31-1.61,.63-.06,1.27-.02,1.88,.12,1.46,.34,2.71,1.22,3.52,2.47,.44,.68,.25,1.59-.43,2.03-.25,.16-.52,.24-.8,.24Z" style="fill:#6ee4f8;"/></svg>