<?xml version="1.0" encoding="UTF-8"?><svg id="ICONS" xmlns="http://www.w3.org/2000/svg" viewBox="0 0 24 24"><rect x="1.4" y="14.89" width="21.19" height="5.87" rx="1.86" ry="1.86" transform="translate(24 35.65) rotate(180)" style="fill:#6ee4f8;"/><path d="M8.61,14.21l-5.42-.04c-1.41-.01-2.28-1.55-1.57-2.76l2.75-4.67c.72-1.22,2.48-1.2,3.18,.02l2.67,4.71c.7,1.23-.2,2.75-1.61,2.74Z" style="fill:#6e85f8;"/><path d="M10.37,10.28l-2.52-4.37c-.71-1.22,.18-2.75,1.59-2.75h5.05c1.41,0,2.29,1.53,1.59,2.75l-2.52,4.37c-.71,1.22-2.47,1.22-3.18,0Z" style="fill:#6e85f8;"/><path d="M20.79,14.21l-5.42-.04c-1.41-.01-2.28-1.55-1.57-2.76l2.75-4.67c.72-1.22,2.48-1.2,3.18,.02l2.67,4.71c.7,1.23-.2,2.75-1.61,2.74Z" style="fill:#6e85f8;"/></svg>