<?xml version="1.0" encoding="UTF-8"?><svg id="ICONS" xmlns="http://www.w3.org/2000/svg" viewBox="0 0 24 24"><path d="M6.7,6.91c.18-.1,.79-.5,1.67-.7,2.04-.47,2.83,1.78,1.62,3.48-1.08,1.23-2.19,1.8-3.29,2.53-1.1-.73-2.22-1.3-3.29-2.53-1.2-1.7-.42-3.95,1.62-3.48,.89,.2,1.49,.6,1.67,.7" style="fill:#5c98ff;"/><line x1="3.26" y1="17.82" x2="20.8" y2="17.86" style="fill:none; stroke:#5c98ff; stroke-linecap:round; stroke-miterlimit:11.34; stroke-width:3px;"/><path d="M12.03,7.17c4.22-2.08,6.59,1.08,5.69,4.9" style="fill:none; stroke:#5c98ff; stroke-linecap:round; stroke-miterlimit:11.34; stroke-width:2px;"/><g><rect x="17.01" y="9.97" width="1.42" height="4.2" transform="translate(29.91 -5.58) rotate(90.37)" style="fill:#7944e0;"/><g><rect x="13.61" y="11.8" width="5.71" height="2.02" rx="1.01" ry="1.01" transform="translate(18.92 33.53) rotate(-134.63)" style="fill:#1785ff;"/><rect x="16.22" y="11.82" width="5.71" height="2.02" rx="1.01" ry="1.01" transform="translate(-3.52 17.1) rotate(-44.63)" style="fill:#6ee4f8;"/></g></g></svg>