<?xml version="1.0" encoding="UTF-8"?><svg id="ICONS" xmlns="http://www.w3.org/2000/svg" viewBox="0 0 24 24"><g><path d="M18.58,9.15c-.69-5.15-10.03-6.96-12.7-1.13" style="fill:none; stroke:#7944e0; stroke-linecap:round; stroke-miterlimit:11.34; stroke-width:2.5px;"/><g><rect x="4.74" y="4.65" width="2.28" height="6.75" transform="translate(15.82 8.26) rotate(127.6)" style="fill:#7944e0;"/><g><rect x="-1.03" y="6.13" width="9.16" height="3.24" rx="1.33" ry="1.33" transform="translate(-3.68 12.27) rotate(-97.4)" style="fill:#1785ff;"/><rect x="2.29" y="8.69" width="9.16" height="3.24" rx="1.33" ry="1.33" transform="translate(-1.27 .97) rotate(-7.4)" style="fill:#6ee4f8;"/></g></g></g><g><path d="M5.35,14.72c.69,5.15,10.03,6.96,12.7,1.13" style="fill:none; stroke:#7944e0; stroke-linecap:round; stroke-miterlimit:11.34; stroke-width:2.5px;"/><g><rect x="16.9" y="12.47" width="2.28" height="6.75" transform="translate(-5.52 20.47) rotate(-52.4)" style="fill:#7944e0;"/><g><rect x="15.79" y="14.5" width="9.16" height="3.24" rx="1.33" ry="1.33" transform="translate(33.73 -6.16) rotate(82.6)" style="fill:#1785ff;"/><rect x="12.48" y="11.94" width="9.16" height="3.24" rx="1.33" ry="1.33" transform="translate(35.72 24.81) rotate(172.6)" style="fill:#6ee4f8;"/></g></g></g></svg>