<?xml version="1.0" encoding="UTF-8"?><svg id="ICONS" xmlns="http://www.w3.org/2000/svg" viewBox="0 0 24 24"><path d="M7.12,9.37h0c-7.17,.21-7.7,11.84,1.72,9.15-.76-2.74-1.77-5.23-1.77-8.78,.01-.13,.04-.24,.06-.37Z" style="fill:none; stroke:#ffbe73; stroke-miterlimit:11.34; stroke-width:2.25px;"/><path d="M16.37,9.56c.43,.08,1.99,.24,3.71,1.11,3.99,2.01,2.07,6.88-2.3,8.1-3.5,.61-6.13,.04-8.96-.24-.76-2.74-1.77-5.23-1.77-8.78,.45-4.51,4.92-7.23,7.58-3.65,1.15,1.55,1.57,3.06,1.73,3.47" style="fill:none; stroke:#e700e0; stroke-linecap:round; stroke-miterlimit:11.34; stroke-width:2.25px;"/><g><rect x="12.91" y="16.13" width="5.32" height="1.88" rx=".83" ry=".83" transform="translate(38.65 18.13) rotate(135)" style="fill:#1785ff;"/><rect x="12.92" y="13.7" width="5.32" height="1.88" rx=".83" ry=".83" transform="translate(16.24 36) rotate(-135)" style="fill:#6ee4f8;"/></g><g><rect x="15.7" y="19.92" width="5.32" height="1.88" rx=".83" ry=".83" transform="translate(20.13 -6.87) rotate(45)" style="fill:#1785ff;"/><rect x="15.69" y="17.49" width="5.32" height="1.88" rx=".83" ry=".83" transform="translate(-7.66 18.38) rotate(-45)" style="fill:#6ee4f8;"/></g></svg>