<?xml version="1.0" encoding="UTF-8"?><svg id="ICONS" xmlns="http://www.w3.org/2000/svg" viewBox="0 0 24 24"><path d="M12,9.99c.16-.09,.7-.44,1.48-.62,1.81-.41,2.5,1.58,1.44,3.08-.95,1.09-1.94,1.59-2.91,2.24-.97-.65-1.96-1.15-2.91-2.24-1.07-1.5-.37-3.49,1.44-3.08,.78,.18,1.32,.53,1.48,.62" style="fill:#5c98ff;"/><path d="M6.73,17.31c-.35-.31-.67-.65-.97-1.02-2.72-3.44-2.13-8.44,1.31-11.16,3.44-2.72,8.44-2.13,11.16,1.31,2.72,3.44,2.13,8.44-1.31,11.16-1.42,1.12-3.11,1.68-4.8,1.71" style="fill:none; stroke:#5c98ff; stroke-linecap:round; stroke-miterlimit:11.34; stroke-width:2.5px;"/><g><rect x="5.5" y="14.83" width="1.42" height="4.2" transform="translate(15.65 1.56) rotate(51.7)" style="fill:#7944e0;"/><g><rect x="2.84" y="17.29" width="5.71" height="2.02" rx="1.01" ry="1.01" transform="translate(9.22 37.13) rotate(-173.3)" style="fill:#1785ff;"/><rect x="4.89" y="15.67" width="5.71" height="2.02" rx="1.01" ry="1.01" transform="translate(-9.73 22.43) rotate(-83.3)" style="fill:#6ee4f8;"/></g></g></svg>