<?xml version="1.0" encoding="UTF-8"?><svg id="ICONS" xmlns="http://www.w3.org/2000/svg" viewBox="0 0 24 24"><path d="M11.55,4.72c.11,0,.23,0,.34,0,3.61,.18,6.4,3.27,6.22,6.89-.18,3.49-3.05,6.23-6.54,6.23-.11,0-.23,0-.34,0-3.61-.18-6.4-3.27-6.22-6.89,.18-3.49,3.05-6.23,6.54-6.23m0-3.5C6.23,1.22,1.79,5.39,1.51,10.77c-.28,5.55,3.99,10.28,9.53,10.56,.17,0,.35,.01,.52,.01,5.32,0,9.76-4.17,10.04-9.55,.28-5.55-3.99-10.28-9.53-10.56-.17,0-.35-.01-.52-.01h0Z" style="fill:#6e59f0;"/><path d="M19.88,16.92l2.08,2.3c.78,.87,.71,2.21-.15,2.99l-.42,.38c-.87,.78-2.21,.71-2.99-.15l-2.08-2.3c1.43-.77,2.65-1.87,3.56-3.21Z" style="fill:#e700e0;"/></svg>