<?xml version="1.0" encoding="UTF-8"?><svg id="ICONS" xmlns="http://www.w3.org/2000/svg" viewBox="0 0 24 24"><path d="M12.88,4.59c3.49,0,6.36,2.73,6.54,6.23,.09,1.75-.51,3.43-1.68,4.73-1.17,1.3-2.78,2.07-4.53,2.16-.11,0-.23,0-.34,0-3.49,0-6.36-2.73-6.54-6.23-.09-1.75,.51-3.43,1.68-4.73,1.17-1.3,2.78-2.07,4.53-2.16,.11,0,.23,0,.34,0m0-3.5c-.17,0-.35,0-.52,.01C6.81,1.38,2.54,6.11,2.82,11.66c.27,5.37,4.72,9.55,10.04,9.55,.17,0,.35,0,.52-.01,5.55-.28,9.82-5.01,9.53-10.56-.27-5.37-4.72-9.55-10.04-9.55h0Z" style="fill:#6e59f0;"/><path d="M4.55,16.79l-2.08,2.3c-.78,.87-.71,2.21,.15,2.99l.42,.38c.87,.78,2.21,.71,2.99-.15l2.08-2.3c-1.43-.77-2.65-1.87-3.56-3.21Z" style="fill:#e700e0;"/></svg>