<?xml version="1.0" encoding="UTF-8"?><svg id="ICONS" xmlns="http://www.w3.org/2000/svg" viewBox="0 0 24 24"><path d="M20.59,13.75l-1.61-.93c.03-.27,.05-.54,.05-.82,0-.24-.01-.48-.04-.72l1.59-.92c1.07-.62,1.44-1.99,.82-3.06l-.59-1.02c-.62-1.07-1.99-1.44-3.06-.82l-1.57,.9c-.42-.31-.88-.59-1.37-.8v-1.8c0-1.24-1-2.24-2.24-2.24h-1.18c-1.24,0-2.24,1-2.24,2.24v1.8c-.49,.21-.94,.48-1.36,.8l-1.57-.91c-1.07-.62-2.44-.25-3.06,.82l-.59,1.02c-.62,1.07-.25,2.44,.82,3.06l1.6,.92c-.02,.23-.04,.47-.04,.71,0,.28,.02,.55,.05,.81l-1.62,.93c-1.07,.62-1.44,1.99-.82,3.06l.59,1.02c.62,1.07,1.99,1.44,3.06,.82l1.65-.95c.4,.29,.82,.54,1.28,.74v1.91c0,1.24,1,2.24,2.24,2.24h1.18c1.24,0,2.24-1,2.24-2.24v-1.91c.46-.2,.88-.45,1.28-.74l1.65,.95c1.07,.62,2.44,.25,3.06-.82l.59-1.02c.62-1.07,.25-2.44-.82-3.06Zm-4.5-.41c-1.31,1.48-2.67,2.15-4.01,3.03-1.34-.87-2.7-1.55-4.01-3.03-1.46-2.03-.51-4.72,1.97-4.16,1.08,.24,1.81,.72,2.03,.84,.22-.12,.96-.6,2.03-.84,2.48-.56,3.44,2.13,1.97,4.16Z" style="fill:#e68bff;"/><path d="M12.08,10.02c.22-.12,.96-.6,2.03-.84,2.48-.56,3.44,2.13,1.97,4.16-1.31,1.48-2.67,2.15-4.01,3.03-1.34-.87-2.7-1.55-4.01-3.03-1.46-2.03-.51-4.72,1.97-4.16,1.08,.24,1.81,.72,2.03,.84" style="fill:none;"/></svg>