<?xml version="1.0" encoding="UTF-8"?><svg id="ICONS" xmlns="http://www.w3.org/2000/svg" viewBox="0 0 24 24"><path d="M4.88,19.75c-.43,0-.85-.18-1.16-.53l1.19-1.03-1.2,1.02c-1.08-1.25-1.67-2.82-1.67-4.44,0-1.96,.85-3.82,2.33-5.1l3.2-2.77c.66-.57,1.65-.5,2.22,.16,.57,.66,.5,1.65-.16,2.22l-3.2,2.77c-.79,.68-1.24,1.68-1.24,2.72,0,.86,.31,1.7,.88,2.35,.57,.66,.51,1.67-.14,2.24-.3,.26-.67,.39-1.04,.39Zm10.53-2.3c-.44,0-.88-.18-1.19-.54-.57-.66-.5-1.65,.16-2.22l3.18-2.75c.79-.68,1.24-1.68,1.24-2.72,0-.86-.31-1.7-.88-2.35-.56-.65-.51-1.65,.14-2.22,.64-.57,1.62-.53,2.2,.11l.02,.02c1.09,1.26,1.67,2.82,1.67,4.44,0,1.96-.85,3.82-2.33,5.1l-3.18,2.75c-.3,.26-.66,.38-1.03,.38Z" style="fill:#5ccbff;"/><path d="M19.75,19.12c0,.43-.18,.85-.53,1.16l-1.03-1.19,1.02,1.2c-1.25,1.08-2.82,1.67-4.44,1.67-1.96,0-3.82-.85-5.1-2.33l-2.77-3.2c-.57-.66-.5-1.65,.16-2.22,.66-.57,1.65-.5,2.22,.16l2.77,3.2c.68,.79,1.68,1.24,2.72,1.24,.86,0,1.7-.31,2.35-.88,.66-.57,1.67-.51,2.24,.14,.26,.3,.39,.67,.39,1.04Zm-2.3-10.53c0,.44-.18,.88-.54,1.19-.66,.57-1.65,.5-2.22-.16l-2.75-3.18c-.68-.79-1.68-1.24-2.72-1.24-.86,0-1.7,.31-2.35,.88-.65,.56-1.65,.51-2.22-.14-.57-.64-.53-1.62,.11-2.2l.02-.02c1.26-1.09,2.82-1.67,4.44-1.67,1.96,0,3.82,.85,5.1,2.33l2.75,3.18c.26,.3,.38,.66,.38,1.03Z" style="fill:#5ccbff;"/></svg>