<?xml version="1.0" encoding="UTF-8"?><svg id="ICONS" xmlns="http://www.w3.org/2000/svg" viewBox="0 0 24 24"><path d="M13.65,3.49l1.64,3.33c.27,.54,.79,.92,1.39,1.01l3.67,.53c1.51,.22,2.11,2.08,1.02,3.14l-2.66,2.59c-.43,.42-.63,1.03-.53,1.63l.63,3.66c.26,1.5-1.32,2.65-2.67,1.94l-3.29-1.73c-.54-.28-1.18-.28-1.71,0l-3.29,1.73c-1.35,.71-2.93-.44-2.67-1.94l.63-3.66c.1-.6-.1-1.21-.53-1.63l-2.66-2.59c-1.09-1.07-.49-2.92,1.02-3.14l3.67-.53c.6-.09,1.12-.46,1.39-1.01l1.64-3.33c.68-1.37,2.63-1.37,3.3,0Z" style="fill:#6ee4f8;"/></svg>