<?xml version="1.0" encoding="UTF-8"?><svg id="ICONS" xmlns="http://www.w3.org/2000/svg" viewBox="0 0 24 24"><path d="M4.58,11.26c1.11-2.06,2.95-3.66,5.29-4.34,3.49-1.01,7.13,.3,9.48,3.06" style="fill:none; stroke:#5c98ff; stroke-linecap:round; stroke-miterlimit:11.34; stroke-width:2.5px;"/><g><rect x="18.31" y="7.4" width="1.42" height="4.2" transform="translate(12.36 -10.69) rotate(45.19)" style="fill:#7944e0;"/><g><rect x="15.81" y="9.91" width="5.71" height="2.02" rx="1.01" ry="1.01" transform="translate(37.29 21.9) rotate(-179.81)" style="fill:#1785ff;"/><rect x="17.66" y="8.08" width="5.71" height="2.02" rx="1.01" ry="1.01" transform="translate(11.36 29.57) rotate(-89.81)" style="fill:#6ee4f8;"/></g></g><path d="M12,14.79c.18-.1,.79-.5,1.67-.7,2.04-.47,2.83,1.78,1.62,3.48-1.08,1.23-2.19,1.8-3.29,2.53-1.1-.73-2.22-1.3-3.29-2.53-1.2-1.7-.42-3.95,1.62-3.48,.89,.2,1.49,.6,1.67,.7" style="fill:#5c98ff;"/></svg>