<?xml version="1.0" encoding="UTF-8"?><svg id="ICONS" xmlns="http://www.w3.org/2000/svg" viewBox="0 0 24 24"><path d="M19.93,16.55l-6.87,3.11c-.6,.27-1.29,.27-1.9,0l-7.13-3.21c-.47-.21-.77-.68-.77-1.2l.05-8.29c0-.56,.36-1.05,.89-1.23l7.06-2.37c.48-.16,1-.16,1.48,0l7.12,2.46c.53,.18,.88,.68,.88,1.24l-.05,8.29c0,.51-.3,.97-.77,1.18Z" style="fill:#5ccbff;"/><path d="M19.61,5.75l-6.4-2.21c-.79-.27-1.64-.27-2.43-.01l-6.35,2.13c-.37,.12-.37,.64,0,.77l6.67,2.38c.52,.18,1.08,.19,1.6,.02l6.91-2.31c.37-.12,.37-.64,0-.77Z" style="fill:#5c5fff;"/></svg>