<?xml version="1.0" encoding="UTF-8"?><svg id="ICONS" xmlns="http://www.w3.org/2000/svg" viewBox="0 0 24 24"><path d="M18.33,5.93c1.28,0,2.31,1.04,2.31,2.31s-1.04,2.31-2.31,2.31-2.31-1.04-2.31-2.31,1.04-2.31,2.31-2.31m0-1.5c-2.11,0-3.81,1.71-3.81,3.81s1.71,3.81,3.81,3.81,3.81-1.71,3.81-3.81-1.71-3.81-3.81-3.81h0Z" style="fill:#6ed2f8;"/><path d="M8.84,2.62c1.28,0,2.31,1.04,2.31,2.31s-1.04,2.31-2.31,2.31-2.31-1.04-2.31-2.31,1.04-2.31,2.31-2.31m0-1.5c-2.11,0-3.81,1.71-3.81,3.81s1.71,3.81,3.81,3.81,3.81-1.71,3.81-3.81-1.71-3.81-3.81-3.81h0Z" style="fill:#5c98ff;"/><path d="M18.33,11.68c0,5.62-9.49-1.28-9.49,5.1" style="fill:none; stroke:#6ed2f8; stroke-miterlimit:10; stroke-width:1.5px;"/><line x1="8.84" y1="7.99" x2="8.84" y2="16.65" style="fill:none; stroke:#5c98ff; stroke-miterlimit:10; stroke-width:1.25px;"/><path d="M8.84,17.05c.18-.1,.77-.49,1.64-.69,2-.46,2.77,1.75,1.59,3.41-1.05,1.21-2.15,1.76-3.22,2.48-1.08-.72-2.17-1.27-3.22-2.48-1.18-1.66-.41-3.86,1.59-3.41,.87,.2,1.46,.59,1.64,.69" style="fill:none; stroke:#5c98ff; stroke-linecap:round; stroke-miterlimit:10; stroke-width:1.5px;"/></svg>