<?xml version="1.0" encoding="UTF-8"?><svg id="ICONS" xmlns="http://www.w3.org/2000/svg" viewBox="0 0 24 24"><g><path d="M18.22,11.19c-1.69,0-3.06-1.37-3.06-3.06s1.37-3.06,3.06-3.06,3.06,1.37,3.06,3.06-1.37,3.06-3.06,3.06Z" style="fill:#6ed2f8;"/><path d="M18.22,5.81c1.28,0,2.31,1.04,2.31,2.31s-1.04,2.31-2.31,2.31-2.31-1.04-2.31-2.31,1.04-2.31,2.31-2.31m0-1.5c-2.11,0-3.81,1.71-3.81,3.81s1.71,3.81,3.81,3.81,3.81-1.71,3.81-3.81-1.71-3.81-3.81-3.81h0Z" style="fill:#6ed2f8;"/></g><g><path d="M8.73,7.88c-1.69,0-3.06-1.37-3.06-3.06s1.37-3.06,3.06-3.06,3.06,1.37,3.06,3.06-1.37,3.06-3.06,3.06Z" style="fill:#5c98ff;"/><path d="M8.73,2.5c1.28,0,2.31,1.04,2.31,2.31s-1.04,2.31-2.31,2.31-2.31-1.04-2.31-2.31,1.04-2.31,2.31-2.31m0-1.5c-2.11,0-3.81,1.71-3.81,3.81s1.71,3.81,3.81,3.81,3.81-1.71,3.81-3.81-1.71-3.81-3.81-3.81h0Z" style="fill:#5c98ff;"/></g><path d="M18.22,11.56c0,5.62-9.49-1.28-9.49,5.1" style="fill:none; stroke:#6ed2f8; stroke-miterlimit:10; stroke-width:2px;"/><line x1="8.73" y1="7.87" x2="8.73" y2="16.52" style="fill:none; stroke:#5c98ff; stroke-miterlimit:10; stroke-width:2px;"/><path d="M8.73,16.93c.18-.1,.77-.49,1.64-.69,2-.46,2.77,1.75,1.59,3.41-1.05,1.21-2.15,1.76-3.22,2.48-1.08-.72-2.17-1.27-3.22-2.48-1.18-1.66-.41-3.86,1.59-3.41,.87,.2,1.46,.59,1.64,.69" style="fill:#5c98ff; stroke:#5c98ff; stroke-linecap:round; stroke-miterlimit:10; stroke-width:1.5px;"/></svg>